<?xml version="1.0" standalone="no"?>
<!DOCTYPE svg PUBLIC "-//W3C//DTD SVG 1.1//EN" "http://www.w3.org/Graphics/SVG/1.1/DTD/svg11.dtd">
<svg xmlns="http://www.w3.org/2000/svg"><defs><font id="SVG Font" horiz-adv-x="512"><font-face units-per-em="512" ascent="448" descent="-64" x-height="240" cap-height="480"/><missing-glyph horiz-adv-x="512"/><glyph unicode="&#x2710;" glyph-name="apply-with-pencil" horiz-adv-x="512" d="M105.11 88.438l198.811 0l0 -44.599l-198 0ZM105.69 189.126L105.69 143.237L182.328 143.237L192.045 189.126ZM248.712 288.524L105.11 288.524L105.11 243.925L204.113 243.925L208.149 247.961ZM360.008 -13.022H49.034V343.84h254.994l18.982 18.981l31.996 31.995H49.034C21 394.816 -1.944 371.861 -1.944 343.84v-356.862 C-1.944 -41.066 21 -64 49.034 -64h310.974c28.022 0 50.978 22.934 50.978 50.978v252.33l-50.978 -50.998V-13.022zM489.298 423.365C460.61 452.085 439.051 447.77 439.051 447.77L338.557 347.274L223.696 232.415l-20.077 -94.739l94.74 20.056 l114.838 114.881L513.714 373.107C513.714 373.107 518.03 394.645 489.298 423.365zM292.69 169.155l-32.274 -6.957 c-3.114 5.841 -6.872 11.639 -13.765 18.51c-6.871 6.914 -12.69 10.65 -18.51 13.785l6.957 32.253l9.319 9.362 c0 0 17.587 -0.344 37.428 -20.185c19.842 -19.885 20.207 -37.449 20.207 -37.449L292.69 169.155z"/><glyph unicode="&#x25BC;" glyph-name="arrow-block-down" horiz-adv-x="512" d="M0 406.811l512 0.001L256.008 -22.812L0 406.811z"/><glyph unicode="&#x25C0;" glyph-name="arrow-block-left" horiz-adv-x="512" d="M470.811 448l0.001 -512L41.188 191.992L470.811 448z"/><glyph unicode="&#x25B6;" glyph-name="arrow-block-right" horiz-adv-x="512" d="M41.188 -64V448l429.623 -255.992L41.188 -64z"/><glyph unicode="&#x25B2;" glyph-name="arrow-block-up" horiz-adv-x="512" d="M512 -22.812H0L255.992 406.812L512 -22.812z"/><glyph unicode="&#x2193;" glyph-name="arrow-down" horiz-adv-x="512" d="M512 201.541L383.062 201.566L383.126 437.91L128.708 437.91L128.708 201.555L0 201.579L256.032 -53.91Z"/><glyph unicode="&#x2190;" glyph-name="arrow-left" horiz-adv-x="512" d="M265.541 -64L265.567 64.938L501.91 64.874L501.91 319.292L265.555 319.292L265.579 448L10.09 191.968Z"/><glyph unicode="&#x2192;" glyph-name="arrow-right" horiz-adv-x="512" d="M246.459 448L246.433 319.062L10.09 319.126L10.09 64.708L246.445 64.708L246.421 -64L501.91 192.032Z"/><glyph unicode="&#x276E;" glyph-name="arrow-thin-left" horiz-adv-x="512" d="M198.446 190.424L389.062 -64h-73.9L122.937 191.983L315.162 448h73.9 L198.446 190.424z"/><glyph unicode="&#x276F;" glyph-name="arrow-thin-right" horiz-adv-x="512" d="M313.561 190.429L122.936 -64h73.896l192.233 255.981L196.831 448h-73.896 L313.561 190.429z"/><glyph unicode="&#x2191;" glyph-name="arrow-up" horiz-adv-x="512" d="M0 182.459L128.938 182.433L128.874 -53.91L383.292 -53.91L383.292 182.445L512 182.421L255.968 437.91Z"/><glyph unicode="&#x25AD;" glyph-name="cac-card" horiz-adv-x="512" d="M447.996 373.335H64.004C28.654 373.335 0 344.682 0 309.332V74.67c0 -35.35 28.654 -64.006 64.004 -64.006h383.992 c35.351 0 64.004 28.656 64.004 64.006V309.332C512 344.682 483.347 373.335 447.996 373.335zM469.324 74.67 c0 -11.783 -9.546 -21.33 -21.328 -21.33H64.004c-11.784 0 -21.338 9.547 -21.338 21.33V309.332c0 11.784 9.554 21.338 21.338 21.338 h383.992c11.782 0 21.328 -9.554 21.328 -21.338V74.67zM209.775 117.328H110.22c-13.748 0 -24.886 11.154 -24.886 24.887 c0 17.385 13.432 32.598 33.675 41.5h21.715c-7.542 6.277 -15.535 17.369 -21.201 37.321c-6.889 24.267 18.127 45.629 40.47 45.629 c22.915 0 48.551 -21.362 41.483 -45.629c-5.812 -19.953 -13.989 -31.044 -21.731 -37.321h21.232c20.235 -8.919 33.685 -24.115 33.685 -41.5 l0 0C234.663 128.482 223.515 117.328 209.775 117.328zM277.331 266.665h128.005v-21.329H277.331V266.665zM277.331 202.67h128.005v-21.338H277.331V202.67zM277.331 138.674h128.005v-21.346H277.331V138.674z"/><glyph unicode="&#x23CD;" glyph-name="calendar-detail" horiz-adv-x="512" d="M144.013 447.9c17.676 0 31.995 -18.33 31.995 -40.945v-40.946c0 -22.614 -14.319 -40.943 -31.995 -40.943 c-17.677 0 -31.997 18.329 -31.997 40.943V406.955C112.016 429.57 126.336 447.9 144.013 447.9zM367.979 447.9c17.665 0 31.995 -18.33 31.995 -40.945v-40.946c0 -22.614 -14.33 -40.943 -31.995 -40.943 c-17.668 0 -31.999 18.329 -31.999 40.943V406.955C335.98 429.57 350.312 447.9 367.979 447.9zM463.949 386.488h-47.985v-20.479c0 0 -0.497 -62.057 -47.984 -62.057c0 0 -47.988 0.645 -47.988 61.422l-0.495 21.114H191.504 v-20.479c0 0 0.503 -62.057 -47.491 -62.057c0 0 -48.489 -0.636 -48.489 61.422V386.488H48.032c-17.677 0 -31.997 -18.339 -31.997 -40.955 v-368.498c0 -22.613 14.32 -40.936 31.997 -40.936h415.917c17.686 0 32.016 18.322 32.016 40.936V345.533 C495.965 368.148 481.635 386.488 463.949 386.488zM128.014 -22.965H48.032v61.414h79.981V-22.965zM128.014 79.403H48.032v61.414 h79.981V79.403zM128.014 181.753H48.032v61.422h79.981V181.753zM239.992 -22.965h-79.981v61.414h79.981V-22.965zM239.992 79.403h-79.981v61.414h79.981V79.403zM239.992 181.753h-79.981v61.422h79.981V181.753zM351.97 -22.965h-79.982 v61.414h79.982V-22.965zM351.97 79.403h-79.982v61.414h79.982V79.403zM351.97 181.753h-79.982v61.422h79.982V181.753zM463.949 -22.965h-79.964v61.414h79.964V-22.965zM463.949 79.403h-79.964v61.414h79.964V79.403zM463.949 181.753h-79.964 v61.422h79.964V181.753z"/><glyph unicode="&#x2A78;" glyph-name="calendar" horiz-adv-x="512" d="M455.121 391.12H429.52v-56.9H338.48v56.9h-164.96v-56.9H82.5v56.9H56.9C25.6 391.12 0 365.52 0 334.22v-341.341 C0 -38.4 25.6 -64 56.9 -64h398.221C486.4 -64 512 -38.4 512 -7.121V334.22C512 365.52 486.4 391.12 455.121 391.12zM455.121 -7.121 H56.9V220.44h398.221V-7.121zM147.92 448H108.1v-96.72h39.82V448zM403.92 448h-39.84v-96.72h39.84V448z"/><glyph unicode="&#x2611;" glyph-name="check-enclosed" horiz-adv-x="512" d="M256 448C114.617 448 0 333.382 0 192c0 -141.389 114.617 -256 256 -256s256 114.611 256 256C512 333.382 397.383 448 256 448zM393.241 239.572c-2.997 -1.776 -7.483 -3.513 -13.506 -6.523c-10.843 -5.422 -21.85 -15.211 -30.908 -23.307 c-41.157 -36.777 -78.623 -79.701 -106.425 -127.36c-25.665 35.124 -72.243 76.596 -113.985 91.306c-2.132 1.162 -4.265 2.325 -6.397 3.49 c25.782 14.538 51.564 29.077 77.347 43.616c12.601 -22.488 25.201 -44.974 37.801 -67.46 c37.928 71.115 83.532 150.015 158.812 187.285C380.604 307.314 387.625 263.133 393.241 239.572z"/><glyph unicode="&#x2713;" glyph-name="check" horiz-adv-x="512" d="M508.617 430.118c-138.83 -68.732 -222.934 -214.24 -292.879 -345.389c-23.237 41.469 -46.475 82.939 -69.712 124.41 c-47.547 -26.812 -95.095 -53.625 -142.643 -80.438c3.933 -2.146 7.865 -4.291 11.798 -6.436c76.979 -27.125 162.88 -103.607 210.21 -168.383 c51.271 87.893 120.365 167.053 196.267 234.877c16.705 14.928 37.004 32.982 57.002 42.981c11.105 5.552 19.379 8.754 24.906 12.03 C493.211 287.221 480.262 368.698 508.617 430.118z"/><glyph unicode="&#x25D9;" glyph-name="configure" horiz-adv-x="512" d="M256 448C114.617 448 0 333.382 0 192c0 -141.389 114.617 -256 256 -256c141.383 0 256 114.611 256 256 C512 333.382 397.383 448 256 448zM382.395 93.155l-25.974 -24.619c-3.977 -3.98 -10.433 -3.98 -14.409 0l-84.172 84.977 c-3.976 3.98 -3.976 10.433 0 14.413l7.37 8.451l-13.47 13.592c-25.098 -29.957 -72.432 -98.39 -72.432 -98.39l-12.765 -12.77 c-11.167 -11.161 -29.266 -11.161 -40.427 0c-11.166 11.165 -11.166 29.265 0 40.424L138.883 132l87.722 83.357l-1.494 2.637 l-74.691 75.6c-6.784 -3.297 -16.235 2.443 -16.235 2.443l-12.376 11.839l23.445 23.439l12.376 -11.84c5.759 -5.76 2.4 -15.852 2.4 -15.852 l76.562 -77.111l1.556 -0.013c0 0 26.728 28.16 26.333 29.013c-9.173 20.203 -13.222 38.327 13.234 63.703 c16.211 16.216 38.95 21.476 58.137 15.371l-33.407 -33.192c-3.519 -3.524 -3.519 -9.24 0 -12.765l12.024 -19.211 c3.519 -3.53 12.109 0.791 15.643 4.321l34.948 34.339c9.273 -20.228 5.519 -46.006 -12.346 -63.863 c-20.257 -19.716 -37.899 -24.697 -62.826 -13.616c-1.197 0.519 -27.443 -27.872 -27.443 -27.872l14.616 -14.776l6.211 6.209 c3.974 3.982 10.431 3.982 14.406 0l84.716 -86.593C386.369 103.588 386.369 97.136 382.395 93.155z"/><glyph unicode="&#x2A37;" glyph-name="crosshair" horiz-adv-x="512" d="M256 447.958C114.644 447.958 0.042 333.356 0.042 192c0 -141.357 114.602 -255.958 255.958 -255.958 c141.355 0 255.958 114.602 255.958 255.958C511.958 333.356 397.354 447.958 256 447.958zM276.842 -15.311v115.05h-41.684v-115.05 c-98.415 9.757 -176.678 88.055 -186.452 186.487h115.034v41.666H48.706C58.48 311.257 136.743 389.52 235.158 399.277v-115.016h41.684 V399.277c98.448 -9.757 176.678 -88.02 186.435 -186.435H348.261v-41.666h115.016C453.52 72.744 375.29 -5.518 276.842 -15.311z"/><glyph unicode="&#x21D0;" glyph-name="double-arrow-left" horiz-adv-x="512" d="M480.58 448h-73.904L214.461 192l192.215 -256h73.904 L289.963 190.441L480.58 448zM297.539 448h-73.904L31.42 192l192.215 -256h73.904L106.932 190.441 L297.539 448z"/><glyph unicode="&#x21D2;" glyph-name="double-arrow-right" horiz-adv-x="512" d="M222.038 190.441L31.42 -64h73.904l192.215 256L105.324 448H31.42 L222.038 190.441zM405.068 190.441L214.461 -64h73.904L480.58 192L288.365 448 h-73.904L405.068 190.441z"/><glyph unicode="&#x2585;" glyph-name="email" horiz-adv-x="512" d="M16.89 326.096c13.889 -7.466 206.174 -110.755 213.322 -114.597c7.161 -3.841 16.433 -5.698 25.781 -5.698 c9.348 0 18.622 1.857 25.77 5.698c7.172 3.842 199.433 107.131 213.321 114.597c13.914 7.454 27.066 30.882 1.524 30.882H15.377 C-10.137 356.978 3.001 333.549 16.89 326.096zM500.985 269.217c-15.772 -8.242 -209.558 -109.561 -219.223 -114.623 c-9.654 -5.037 -16.422 -5.698 -25.77 -5.698c-9.348 0 -16.114 0.661 -25.781 5.698c-9.654 5.062 -203.413 106.38 -219.198 114.623 C-0.103 274.991 0 268.199 0 262.959c0 -5.241 0 -208.667 0 -208.667c0 -11.931 15.886 -27.271 28.21 -27.271h455.578 c12.314 0 28.212 15.34 28.212 27.271c0 0 0 203.426 0 208.667C512 268.199 512.102 274.991 500.985 269.217z"/><glyph unicode="&#x2691;" glyph-name="flag" horiz-adv-x="512" d="M150.633 314.329c0 0 157.999 99.692 159.598 -8.633c0 0 102.13 72.211 148.288 20.407l10.581 -56.512 c0 0 -20.295 57.288 -149.104 -18.84c0 0 4.855 105.967 -158.016 5.5L150.633 314.329L150.633 314.329zM172.616 204.001c0 0 157.076 98.553 158.71 -9.781c0 0 102.096 72.228 148.286 20.424l10.547 -56.521 c0 0 -20.292 57.295 -149.086 -18.832c0 0 8.075 106.742 -154.777 6.266L172.616 204.001L172.616 204.001zM39.907 98.773c0 0 146.406 93.636 156.944 -4.629c0 0 149.096 93.81 154.769 -12.167 c0 0 112.624 76.146 149.087 18.85l10.529 -54.162c0 0 -26.75 54.963 -149.888 -18.85c0 0 1.846 96.769 -153.715 9.642 c0 0 3.403 95.847 -157.65 5.501L39.907 98.773L39.907 98.773zM149.033 336.154C103.651 384.834 0.764 315.746 0.764 315.746l29.953 -167.195 c128.836 74.578 149.904 21.198 149.904 21.198L149.033 336.154zM150.938 251.759l-14.001 -3.428l0.783 -9.834l-8.336 7.797 l-13.602 -4.099l8.842 8.207l-9.189 7.318l13.775 -2.707l7.945 8.615l-0.322 -9.886L150.938 251.759zM125.606 288.36l0.757 -9.833 l-8.302 7.789l-13.627 -4.099l8.859 8.215l-9.198 7.311l13.767 -2.707l7.936 8.624l-0.295 -9.885l14.071 -1.994L125.606 288.36zM107.044 334.317l7.945 8.624l-0.339 -9.886l14.115 -1.984l-13.976 -3.429l0.775 -9.833l-8.32 7.789l-13.627 -4.09l8.858 8.215 l-9.189 7.31L107.044 334.317zM71.652 303.154l7.963 8.616l-0.322 -9.895l14.08 -1.967l-13.958 -3.42l0.748 -9.833l-8.284 7.78 l-13.636 -4.108l8.85 8.233l-9.189 7.292L71.652 303.154zM13.182 317.113l13.767 -2.715l7.971 8.606l-0.366 -9.877l14.115 -1.983 l-13.95 -3.42l0.74 -9.825l-8.311 7.771l-13.628 -4.098l8.842 8.224L13.182 317.113zM24.355 262.289l8.85 8.232l-9.215 7.301 l13.801 -2.707l7.919 8.633l-0.305 -9.92l14.072 -1.958l-13.967 -3.42l0.766 -9.824l-8.311 7.771L24.355 262.289zM35.347 237.801 l13.766 -2.707l7.945 8.606l-0.305 -9.886l14.098 -1.976l-13.993 -3.419l0.783 -9.843l-8.337 7.797l-13.602 -4.107l8.85 8.215 L35.347 237.801zM68.972 178.556l-8.293 7.78l-13.637 -4.107l8.824 8.232l-9.172 7.31l13.784 -2.715l7.91 8.633l-0.305 -9.921 l14.09 -1.967l-13.984 -3.411L68.972 178.556zM69.546 250.523l8.842 8.232l-9.198 7.284l13.793 -2.681l7.954 8.607l-0.348 -9.886 l14.098 -1.993l-13.958 -3.411l0.765 -9.833l-8.328 7.771L69.546 250.523zM106.061 207.587l-8.284 7.779l-13.628 -4.072l8.806 8.215 l-9.154 7.301l13.767 -2.706l7.928 8.624l-0.322 -9.912l14.116 -1.976l-13.976 -3.42L106.061 207.587zM149.05 198.502l-8.285 7.762 l-13.627 -4.108l8.806 8.215l-9.18 7.31l13.802 -2.698l7.91 8.625l-0.313 -9.912l14.116 -1.967l-13.994 -3.412L149.05 198.502z"/><glyph unicode="&#x2302;" glyph-name="home" horiz-adv-x="512" d="M506.98 206.265c2.157 -1.824 3.428 -4.146 3.762 -6.967c0.383 -2.764 -0.334 -5.363 -2.156 -7.684l-12.22 -14.375 c-1.769 -2.542 -4.425 -3.814 -7.851 -3.814h-17.58c-2.875 0 -5.196 0.772 -6.801 2.213L262.787 340.385c-4.533 3.595 -9.01 3.595 -13.543 0 L47.897 175.638c-1.437 -1.44 -3.759 -2.213 -6.8 -2.213H23.461c-3.207 0 -5.86 1.272 -7.851 3.814L3.449 191.614 c-1.825 2.155 -2.544 4.644 -2.212 7.463c0.388 2.765 1.658 5.196 3.814 7.188l234.96 192.391c4.922 3.593 10.229 5.527 15.978 5.694 c5.969 0 11.276 -1.937 16.031 -5.694l65.016 -53.13V373.169c0 2.93 1.053 5.361 3.097 7.463c2.101 2.101 4.59 3.097 7.464 3.097h60.427 c2.875 0 5.307 -0.996 7.188 -3.097c1.876 -2.102 2.874 -4.533 2.874 -7.463v-94.317L506.98 206.265L506.98 206.265zM438.65 168.837 v-168.564c0 -5.971 -1.936 -10.891 -5.807 -14.761c-3.926 -3.925 -8.788 -5.861 -14.76 -5.861H303.699V114.602h-95.365V-20.35H93.95 c-5.972 0 -10.891 1.937 -14.761 5.861c-3.87 3.87 -5.86 8.79 -5.86 14.761V168.837l182.66 149.876L438.65 168.837z"/><glyph unicode="&#x2139;" glyph-name="info" horiz-adv-x="512" d="M252.559 447.968C111.217 446.068 -1.843 329.942 0.023 188.566c1.9 -141.325 118.027 -254.386 259.402 -252.536 c141.342 1.934 254.419 118.061 252.553 259.436C510.044 336.775 393.917 449.852 252.559 447.968zM280.957 362.674 c26.032 0 33.715 -15.099 33.715 -32.365c0 -21.565 -17.282 -41.515 -46.73 -41.515c-24.666 0 -36.398 12.399 -35.698 32.898 C232.243 338.942 246.709 362.674 280.957 362.674zM214.228 32.025c-17.766 0 -30.799 10.782 -18.366 58.246l20.399 84.18 c3.55 13.482 4.149 18.865 0 18.865c-5.316 0 -28.415 -9.3 -42.048 -18.482l-8.883 14.565c43.247 36.115 92.995 57.314 114.327 57.314 c17.766 0 20.766 -21.032 11.849 -53.397l-23.349 -88.479c-4.149 -15.633 -2.383 -21.032 1.767 -21.032c5.333 0 22.815 6.5 39.998 19.966 l10.066 -13.466C277.924 48.241 231.993 32.025 214.228 32.025z"/><glyph unicode="&#x2693;" glyph-name="link" horiz-adv-x="512" d="M187.508 41.79l-25.91 -25.73c-22.463 -22.269 -58.97 -22.269 -81.418 0c-10.791 10.687 -16.716 24.925 -16.716 40.059 c0 15.104 5.925 29.313 16.701 40.03l95.358 94.612c19.776 19.597 56.955 48.462 84.045 21.582 c12.433 -12.343 32.522 -12.269 44.851 0.165c12.358 12.433 12.299 32.522 -0.149 44.851c-46.06 45.716 -114.134 37.268 -173.432 -21.567 l-95.373 -94.597c-22.866 -22.746 -35.462 -52.955 -35.462 -85.075c0 -32.179 12.597 -62.387 35.492 -85.073 C59.016 -52.328 89.941 -64 120.881 -64c30.94 0 61.865 11.672 85.417 35.045l25.925 25.731 c12.433 12.358 12.492 32.417 0.149 44.835C220.045 54.059 199.94 54.118 187.508 41.79zM476.507 409.312 c-49.463 49.089 -118.655 51.761 -164.447 6.313l-32.298 -32.06c-12.434 -12.344 -12.508 -32.418 -0.15 -44.851 c12.329 -12.433 32.448 -12.508 44.866 -0.165l32.269 32.045c23.731 23.552 54.807 13.791 75.073 -6.313 c10.777 -10.702 16.717 -24.94 16.717 -40.06c0 -15.119 -5.939 -29.343 -16.717 -40.044L330.09 183.253 c-46.537 -46.179 -68.358 -24.508 -77.672 -15.254c-12.433 12.344 -32.507 12.269 -44.866 -0.179c-12.343 -12.418 -12.269 -32.508 0.164 -44.836 c21.358 -21.194 45.747 -31.701 71.299 -31.701c31.283 0 64.328 15.761 95.761 46.925l101.73 100.94 c22.896 22.731 35.492 52.94 35.492 85.089C511.999 356.372 499.402 386.596 476.507 409.312z"/><glyph unicode="&#x21C5;" glyph-name="list" horiz-adv-x="512" d="M145.709 167.267h221.876v51.198H145.709V167.267zM429.516 448H82.484C51.191 448 25.607 422.401 25.607 391.124v-398.215 c0 -31.293 25.584 -56.908 56.877 -56.908h347.032c31.293 0 56.877 25.615 56.877 56.908V391.124C486.393 422.401 460.809 448 429.516 448zM429.516 -7.092H82.484V391.124h347.032V-7.092zM366.93 329.395H145.07v-49.763H366.93V329.395zM366.93 106.1H145.07v-49.763 H366.93V106.1z"/><glyph unicode="&#x20E4;" glyph-name="menu" horiz-adv-x="512" d="M23.857 374.469h464.287C501.297 374.469 512 363.802 512 350.63 s-10.703 -23.876 -23.855 -23.876H23.857C10.687 326.754 0 337.459 0 350.63S10.687 374.469 23.857 374.469zM23.857 57.209h464.287c13.152 0 23.855 -10.631 23.855 -23.82 c0 -13.152 -10.703 -23.857 -23.855 -23.857H23.857C10.687 9.531 0 20.236 0 33.389C0 46.578 10.687 57.209 23.857 57.209zM23.857 215.839h464.287c13.152 0 23.855 -10.667 23.855 -23.857 c0 -13.153 -10.703 -23.82 -23.855 -23.82H23.857C10.687 168.162 0 178.829 0 191.982C0 205.172 10.687 215.839 23.857 215.839z"/><glyph unicode="&#x2B14;" glyph-name="paper" horiz-adv-x="512" d="M244.009 448L64.014 268.004V-64h383.973V448H244.009zM384.158 -6.47H127.896V241.624h142.52V390.47h113.743V-6.47z"/><glyph unicode="&#x270F;" glyph-name="pencil" horiz-adv-x="512" d="M376.301 429.807c-49.622 28.644 -77.406 14.894 -77.406 14.894l-100.25 -173.695L84.062 72.485L91.295 -64 l121.792 62.005l114.587 198.526L427.938 370.22C427.938 370.22 425.938 401.162 376.301 429.807zM201.229 11.474l-41.468 -21.277 c-6.388 6.811 -13.625 13.386 -25.508 20.242c-11.879 6.863 -21.197 9.832 -30.289 11.966l-2.314 46.559l9.309 16.134 c0 0 24.091 5.951 58.386 -13.859c34.299 -19.793 41.208 -43.629 41.208 -43.629L201.229 11.474z"/><glyph unicode="&#x2E2A;" glyph-name="people" horiz-adv-x="512" d="M512 -25.618c0 0 -1.01 93.673 -6.926 103.369c-8.83 14.43 -29.32 24.414 -67.412 39.767 c-37.978 15.353 -50.127 28.28 -50.127 55.984c0 16.608 11.572 11.196 16.68 41.628c2.107 12.625 12.352 0.202 14.314 29.031 c0 11.5 -5.57 14.342 -5.57 14.342s2.828 17.012 3.925 30.1c1.386 16.305 -8.483 58.423 -61.208 58.423 c-52.724 0 -62.593 -42.118 -61.208 -58.423c1.097 -13.088 3.925 -30.1 3.925 -30.1s-5.569 -2.842 -5.569 -14.342 c1.962 -28.829 12.207 -16.406 14.313 -29.031c5.107 -30.432 16.709 -25.02 16.709 -41.628c0 -18.873 -5.656 -30.878 -21.182 -41.44 c82.938 -40.112 94.077 -48.309 94.077 -84.15v-73.529H512zM261.714 103.608c-50.631 20.431 -66.806 37.688 -66.806 74.598 c0 22.177 15.454 14.934 22.25 55.522c2.799 16.839 16.449 0.274 19.075 38.713c0 15.338 -7.445 19.133 -7.445 19.133 s3.78 22.683 5.267 40.128c1.833 21.744 -11.356 77.916 -81.625 77.916c-70.27 0 -83.458 -56.172 -81.611 -77.916 c1.472 -17.445 5.252 -40.128 5.252 -40.128s-7.446 -3.795 -7.446 -19.133c2.626 -38.438 16.276 -21.874 19.09 -38.713 c6.796 -40.589 22.264 -33.346 22.264 -55.522c0 -36.91 -16.189 -54.167 -66.835 -74.598C27.718 97.374 0 87.679 0 64.476v-90.094h355.676 c0 0 0 53.329 0 67.585C355.676 63.149 312.504 83.062 261.714 103.608z"/><glyph unicode="&#x229A;" glyph-name="person-with-box" horiz-adv-x="512" d="M322 140.311c-27.736 11.182 -36.579 20.628 -36.579 40.826c0 12.133 8.461 8.168 12.168 30.386 c1.536 9.209 9.027 0.146 10.453 21.186c0 8.377 -4.093 10.46 -4.093 10.46s2.082 12.415 2.886 21.953 c1.023 11.904 -6.193 42.636 -44.664 42.636c-38.47 0 -45.688 -30.732 -44.673 -42.636c0.813 -9.538 2.878 -21.953 2.878 -21.953 s-4.075 -2.083 -4.075 -10.46c1.435 -21.039 8.899 -11.977 10.442 -21.186c3.719 -22.218 12.187 -18.253 12.187 -30.386 c0 -20.198 -8.861 -29.645 -36.578 -40.826c-8.442 -3.417 -53.754 -22.382 -53.754 -35.1l-5.481 -35.592h230.299c0 0 0 29.16 0 36.962 C373.415 118.166 349.791 129.092 322 140.311zM444.199 391.869V-7.87H67.802V391.869H444.199 M500.328 447.999H11.672v-511.998h488.656V447.999L500.328 447.999z"/><glyph unicode="&#x26F9;" glyph-name="person" horiz-adv-x="512" d="M400.904 70.859c-67.146 24.454 -88.588 45.109 -88.588 89.31c0 26.525 20.499 17.877 29.477 66.44 c3.736 20.169 21.85 0.33 25.334 46.334c0 18.349 -9.889 22.9 -9.889 22.9s4.991 27.123 6.969 48.014 c2.449 26.024 -15.036 93.25 -108.191 93.25c-93.187 0 -110.672 -67.226 -108.223 -93.25c1.978 -20.891 7 -48.014 7 -48.014 s-9.889 -4.552 -9.889 -22.9c3.453 -46.004 21.55 -26.165 25.286 -46.334c9.009 -48.563 29.508 -39.915 29.508 -66.44 c0 -44.2 -21.457 -64.855 -88.588 -89.31C43.76 46.311 0 21.292 0 4.215c0 -17.047 0 -57.322 0 -57.322h256.016H512 c0 0 0 40.275 0 57.322C512 21.292 468.24 46.311 400.904 70.859z"/><glyph unicode="&#x2B1A;" glyph-name="photo-with-box" horiz-adv-x="512" d="M471.135 407.139v-430.277H40.864V407.139H471.135 M511.998 448H0.002v-512h511.996V448L511.998 448zM255.999 215.24c-19.255 0 -34.858 -15.611 -34.858 -34.858c0 -19.257 15.603 -34.868 34.858 -34.868 c19.257 0 34.869 15.611 34.869 34.868C290.868 199.629 275.256 215.24 255.999 215.24zM348.964 250.104h-27.89 c-3.83 0 -7.97 2.976 -9.179 6.613l-7.206 21.638c-1.208 3.638 -5.346 6.613 -9.178 6.613h-79.023c-3.832 0 -7.965 -2.976 -9.178 -6.613 l-7.207 -21.638c-1.218 -3.638 -5.342 -6.613 -9.178 -6.613h-27.894c-12.781 0 -23.241 -10.459 -23.241 -23.241v-104.596 c0 -12.771 10.459 -23.236 23.241 -23.236h185.932c12.791 0 23.245 10.465 23.245 23.236V226.863 C372.209 239.646 361.755 250.104 348.964 250.104zM255.999 122.268c-32.085 0 -58.104 26.018 -58.104 58.114 c0 32.087 26.019 58.104 58.104 58.104c32.087 0 58.106 -26.018 58.106 -58.104C314.105 148.285 288.086 122.268 255.999 122.268zM340.835 210.607c-4.495 0 -8.128 3.644 -8.128 8.139c0 4.489 3.633 8.132 8.128 8.132c4.494 0 8.129 -3.643 8.129 -8.132 C348.964 214.251 345.329 210.607 340.835 210.607z"/><glyph unicode="&#x25D8;" glyph-name="photo" horiz-adv-x="512" d="M256 243.212c-42.426 0 -76.803 -34.393 -76.803 -76.802c0 -42.41 34.377 -76.818 76.803 -76.818 c42.41 0 76.818 34.408 76.818 76.818C332.818 208.82 298.41 243.212 256 243.212zM460.787 320h-61.43 c-8.463 0 -17.543 6.556 -20.221 14.588L363.256 382.23c-2.678 8.018 -11.756 14.573 -20.221 14.573H168.963 c-8.447 0 -17.542 -6.556 -20.234 -14.573l-15.866 -47.642C130.17 326.556 121.075 320 112.643 320H51.197 C23.036 320 0 296.964 0 268.803V38.41c0 -28.16 23.036 -51.213 51.197 -51.213h409.59c28.191 0 51.213 23.053 51.213 51.213V268.803 C512 296.964 488.979 320 460.787 320zM256 38.41c-70.679 0 -128 57.307 -128 128c0 70.677 57.321 128 128 128 c70.693 0 128 -57.322 128 -128C384 95.717 326.693 38.41 256 38.41zM442.875 233.01c-9.879 0 -17.91 8.017 -17.91 17.911 c0 9.896 8.031 17.912 17.91 17.912c9.91 0 17.912 -8.017 17.912 -17.912C460.787 241.027 452.785 233.01 442.875 233.01z"/><glyph unicode="+" glyph-name="plus" horiz-adv-x="512" d="M431.518 235.879c-43.862 0 -87.767 0 -131.638 0c0 43.877 0 87.763 0 131.638c-29.252 0 -58.506 0 -87.759 0 c0 -43.875 0 -87.761 0 -131.638c-43.877 0 -87.764 0 -131.639 0c0 -29.252 0 -58.505 0 -87.758c43.875 0 87.762 0 131.639 0 c0 -43.873 0 -87.776 0 -131.639c29.252 0 58.506 0 87.759 0c0 43.862 0 87.766 0 131.639c43.871 0 87.775 0 131.638 0 C431.518 177.373 431.518 206.627 431.518 235.879z"/><glyph unicode="&#x2399;" glyph-name="printer" horiz-adv-x="512" d="M487.627 268.349c-0.854 3.122 -2.934 5.871 -5.705 6.833c-7.734 2.705 -82.893 35.228 -97.879 35.228h-24.52V392.139h-207.05 v-81.729h-24.518c-14.985 0 -90.143 -32.522 -97.879 -35.228c-14.984 0 -30.16 -50.587 -30.16 -65.572v-95.353 c0 -14.978 14.985 -32.688 29.965 -32.688l23.314 0.197l-28.608 -89.906h468.578l-34.051 88.543l23.002 1.166 c14.98 0 29.967 17.71 29.967 32.688V209.61C512.084 236.668 499.932 253.566 487.627 268.349zM76.198 34.479l44.949 154.116 h269.704l44.949 -154.116H76.198z"/><glyph unicode="&#xBF;" glyph-name="question-mark" horiz-adv-x="512" d="M247.794 -63.668h-0.025l-2.308 0.049c-35.711 1.006 -60.905 27.355 -59.877 62.537 c0.978 34.581 26.776 59.727 61.307 59.727l2.083 -0.1c36.739 -1.055 61.636 -27.103 60.581 -63.29 C308.552 -39.427 283.155 -63.668 247.794 -63.668zM398.039 234.535c-8.434 -11.945 -26.902 -26.75 -50.189 -44.896l-25.599 -17.691 c-14.053 -10.916 -22.585 -21.205 -25.745 -31.344c-2.511 -7.979 -3.767 -10.088 -3.966 -26.299v-4.115h-97.897l0.277 8.281 c1.179 34.053 2.032 54.079 16.136 70.617c22.134 25.998 70.941 57.417 73.051 58.747c6.979 5.27 12.851 11.269 17.265 17.666 c10.241 14.18 14.857 25.348 14.857 36.288c0 15.183 -4.517 29.261 -13.45 41.783c-8.584 12.071 -24.869 18.193 -48.434 18.193 c-23.364 0 -39.375 -7.403 -48.936 -22.609c-9.837 -15.66 -14.831 -32.071 -14.831 -48.861v-4.165H89.671l0.201 4.342 c2.584 61.81 24.643 106.327 65.522 132.274c25.697 16.538 57.668 24.921 94.959 24.921c48.81 0 90.018 -11.846 122.488 -35.26 c32.826 -23.689 49.487 -59.198 49.487 -105.524C422.329 280.985 414.201 256.645 398.039 234.535z"/><glyph unicode="&#x233E;" glyph-name="radio-button" horiz-adv-x="512" d="M255.308 -64C114.154 -64 -0.688 50.843 -0.688 192.004C-0.688 333.157 114.154 448 255.308 448 c141.153 0 256.011 -114.843 256.011 -255.996C511.319 50.843 396.461 -64 255.308 -64zM255.308 433.217 c-133.004 0 -241.214 -108.209 -241.214 -241.213c0 -133.004 108.209 -241.222 241.214 -241.222 c133.01 0 241.227 108.218 241.227 241.222C496.535 325.007 388.318 433.217 255.308 433.217zM255.308 323.449c72.594 0 131.453 -58.851 131.453 -131.445c0 -72.603 -58.858 -131.445 -131.453 -131.445 c-72.595 0 -131.445 58.843 -131.445 131.445C123.863 264.598 182.713 323.449 255.308 323.449z"/><glyph unicode="&#x25CE;" glyph-name="reset" horiz-adv-x="512" d="M289.394 415.32c-121.077 0 -219.508 -96.981 -222.472 -217.74H0l100.175 -111.662L200.352 197.58h-77.775 c2.939 89.92 76.482 161.914 166.817 161.914c92.214 0 166.95 -74.994 166.95 -167.488c0 -92.504 -74.736 -167.498 -166.95 -167.498 c-36.986 0 -71.129 12.097 -98.786 32.484l-38.289 -40.949c37.789 -29.656 85.372 -47.363 137.075 -47.363 C412.336 -31.32 512 68.649 512 192.006C512 315.34 412.336 415.32 289.394 415.32z"/><glyph unicode="&#x25CB;" glyph-name="search" horiz-adv-x="512" d="M500.48 14.84L378.025 137.294c18.477 30.325 29.088 65.94 29.088 104.046c0 110.725 -95.909 206.65 -206.65 206.65 C89.772 447.991 0 358.218 0 247.51c0 -110.725 95.926 -206.634 206.65 -206.634c36.801 0 71.279 9.934 100.927 27.258L430.71 -54.965 c12.035 -12.035 31.562 -12.035 43.598 0l30.546 30.512C516.923 -12.384 512.516 2.805 500.48 14.84zM61.685 247.51 c0 76.67 62.143 138.796 138.778 138.796c76.653 0 144.949 -68.313 144.949 -144.966c0 -76.653 -62.126 -138.796 -138.762 -138.796 C129.98 102.544 61.685 170.84 61.685 247.51z"/><glyph unicode="&#x293D;" glyph-name="share" horiz-adv-x="512" d="M383.996 43.502H51.199V273.917h66.418c0 0 17.665 22.955 55.56 51.199H25.592 C11.463 325.116 0 313.668 0 299.523v-281.569c0 -14.145 11.463 -25.636 25.592 -25.636h384.012c14.145 0 25.577 11.491 25.577 25.636 v95.885l-51.185 -42.138V43.502zM342.065 221.437v-90.86L512 263.707L342.065 391.682v-80.136 c-206.386 0 -206.386 -204.042 -206.386 -204.042C194.098 203.477 230.032 221.437 342.065 221.437z"/><glyph unicode="&#x2605;" glyph-name="star" horiz-adv-x="512" d="M256 448l69.447 -195.574H512L359.83 137.574L414.213 -64L256 56.852L97.787 -64l54.404 201.574L0 252.426h186.532L256 448z"/><glyph unicode="&#x2B1C;" glyph-name="story-with-box" horiz-adv-x="512" d="M471.135 407.139v-430.277H40.864V407.139H471.135 M511.998 448H0.002v-512h511.996V448L511.998 448zM223.538 158.5l-59.027 23.618v-19.981l59.027 -23.613V158.5zM223.538 219.792l-59.027 23.613v-19.977l59.027 -23.613V219.792zM382.315 322.26c-4.051 2.744 -9.198 3.308 -13.747 1.487L256 278.715l-112.568 45.032c-4.549 1.821 -9.697 1.257 -13.747 -1.487 c-4.05 -2.743 -6.484 -7.317 -6.484 -12.215v-188.87c0 -6.035 3.671 -11.462 9.277 -13.702l117.786 -47.116c0 0 2.414 -0.778 2.873 -0.867 c0.948 -0.185 1.905 -0.29 2.863 -0.29s1.915 0.105 2.862 0.29c0.449 0.089 2.884 0.872 2.884 0.872l117.775 47.111 c5.606 2.24 9.278 7.667 9.278 13.702v188.87C388.8 314.942 386.365 319.517 382.315 322.26zM241.245 89.392l-94.442 37.769 V292.547l94.442 -37.784V89.392zM365.196 127.16l-94.442 -37.769V254.763l94.442 37.784V127.16zM347.489 182.118L288.451 158.5 v-19.977l59.038 23.613V182.118zM347.489 243.405l-59.038 -23.613v-19.977l59.038 23.613V243.405z"/><glyph unicode="&#x270E;" glyph-name="story" horiz-adv-x="512" d="M193.427 127.411l-113.78 45.531v-38.528l113.78 -45.5V127.411zM193.427 245.572l-113.78 45.515v-38.513l113.78 -45.515 V245.572zM499.477 443.102c-7.773 5.29 -17.706 6.369 -26.497 2.853L256 359.151L39.006 445.954c-8.76 3.517 -18.693 2.438 -26.498 -2.853 C4.689 437.811 0 428.973 0 419.534v-364.057c0 -11.63 7.095 -22.087 17.876 -26.436l227.065 -90.814c0 0 4.658 -1.512 5.537 -1.696 c1.82 -0.34 3.671 -0.524 5.521 -0.524c1.852 0 3.702 0.185 5.521 0.524c0.879 0.185 5.553 1.696 5.553 1.696l227.034 90.814 C504.936 33.39 512 43.847 512 55.477V419.534C512 428.973 507.281 437.811 499.477 443.102zM227.559 -5.816L45.53 67.014V385.803 l182.029 -72.83V-5.816zM466.47 67.014l-182.028 -72.83V312.973l182.028 72.83V67.014zM432.354 172.942l-113.765 -45.531v-38.497 l113.765 45.5V172.942zM432.354 291.086l-113.765 -45.515v-38.513l113.765 45.515V291.086z"/><glyph unicode="&#x27C1;" glyph-name="trash" horiz-adv-x="512" d="M211.792 446.381c-4.684 -2.849 -10.24 -14.324 -14.719 -30.4l-2.383 -8.551l-70.03 -0.428L54.63 406.575l-5.558 -2.63 c-6.755 -3.195 -12.013 -8.308 -15.149 -14.729c-2.364 -4.841 -2.381 -5.001 -2.637 -24.326l-0.256 -19.454H256h224.971l-0.258 19.454 c-0.254 19.325 -0.271 19.485 -2.637 24.326c-3.135 6.421 -8.393 11.533 -15.148 14.729l-5.557 2.63l-70.031 0.428l-70.031 0.428 l-2.404 8.551c-4.469 15.904 -10.115 27.576 -14.697 30.386c-2.605 1.599 -4.703 1.679 -44.207 1.679S214.399 447.967 211.792 446.381 L211.792 446.381zM51.637 324.06c0 -0.47 9.066 -73.322 20.137 -161.822c11.072 -88.5 20.486 -164.818 20.912 -169.52 c2.013 -22.231 14.263 -40.362 33.771 -49.98c13.81 -6.812 5.045 -6.346 126.038 -6.675c94.059 -0.256 109.07 -0.121 115.693 1.028 c13.166 2.283 23.852 7.687 32.918 16.643c9.525 9.409 15.584 20.943 17.381 33.086c0.949 6.412 41.916 336.445 41.895 337.497 C460.359 325.343 51.637 325.086 51.637 324.06L51.637 324.06zM194.435 130.387v-132.964h-20.522h-20.522V130.387V263.35h20.522 h20.522V130.387L194.435 130.387zM276.523 130.387v-132.964H256h-20.522V130.387V263.35H256h20.523V130.387L276.523 130.387zM358.609 130.387v-132.964h-20.521h-20.521V130.387V263.35h20.521h20.521V130.387L358.609 130.387z"/><glyph unicode="&#x2B1B;" glyph-name="video-with-box" horiz-adv-x="512" d="M471.135 407.139v-430.277H40.864V407.139H471.135 M511.998 448H0.002v-512h511.996V448L511.998 448zM175.062 76.309V307.692L369.195 192L175.062 76.309z"/><glyph unicode="&#x2586;" glyph-name="view-coverflow" horiz-adv-x="512" d="M0 345.386h33.136v-306.773H0V345.386zM68.409 312.25h33.136v-240.5H68.409V312.25zM136.818 312.25h239.433v-239.432H136.818V312.25zM410.456 312.25h34.203v-239.432h-34.203V312.25zM478.864 345.386H512v-306.773h-33.136V345.386z"/><glyph unicode="&#x2254;" glyph-name="view-list" horiz-adv-x="512" d="M-0.14 215.289v69.854H512.14v-69.854H-0.14zM-0.14 331.721V401.574H512.14v-69.854H-0.14zM-0.14 98.857V168.71H512.14v-69.853H-0.14zM-0.14 -17.574V52.28H512.14v-69.854H-0.14z"/><glyph unicode="&#x2449;" glyph-name="view-thumbnails" horiz-adv-x="512" d="M0.533 406.153h134.468v-183.552H0.533V406.153zM188.781 406.153h134.453v-183.552H188.781V406.153zM0.533 161.398h134.468v-183.551H0.533V161.398zM188.781 161.398h134.453v-183.551H188.781V161.398zM376.998 161.398h134.469v-183.551H376.998V161.398zM376.998 406.153h134.469v-183.552H376.998V406.153z"/><glyph unicode="&#x26A0;" glyph-name="warning" horiz-adv-x="512" d="M511.245 -23.106L254.564 412.638c-0.989 1.676 -2.724 2.538 -4.75 2.681c-1.946 -0.021 -3.739 -1.08 -4.691 -2.782L0.696 -23.213 c-0.946 -1.681 -0.925 -3.745 0.048 -5.415c0.979 -1.67 2.766 -2.691 4.702 -2.691h501.107c1.958 0 3.755 1.043 4.733 2.745 C512.255 -26.884 512.234 -24.788 511.245 -23.106zM277.787 93.617v-54.469h-54.468v54.469H277.787zM223.319 126.639v152.51 h54.468v-152.51H223.319z"/><glyph unicode="&#x292C;" glyph-name="x-enclosed" horiz-adv-x="512" d="M256 448C114.617 448 0 333.382 0 192c0 -141.389 114.617 -256 256 -256s256 114.611 256 256C512 333.382 397.383 448 256 448zM366.329 117.523l-35.861 -35.85l-74.471 74.471l-74.47 -74.471l-35.856 35.85L220.148 192l-74.478 74.47l35.856 35.856l74.47 -74.478 l74.471 74.478l35.861 -35.856L291.846 192L366.329 117.523z"/><glyph unicode="&#x274C;" glyph-name="x" horiz-adv-x="512" d="M512 364.795L428.787 447.992L255.993 275.181L83.197 447.992L0 364.795L172.812 192L0 19.189L83.197 -63.992L255.993 108.804L428.787 -63.992L512 19.189L339.173 192Z"/></font>
</defs>
</svg>
